HIERARCHY
ROOT Hips
{
	OFFSET 0.00000 0.00000 0.00000
	CHANNELS 6 Xposition Yposition Zposition Zrotation Yrotation Xrotation 
	JOINT LHipJoint
	{
		OFFSET 0 0 0
		CHANNELS 3 Zrotation Yrotation Xrotation
		JOINT LeftHip
		{
			OFFSET 1.52977 -1.71332 0.88991
			CHANNELS 3 Zrotation Yrotation Xrotation
			JOINT LeftKnee
			{
				OFFSET 2.23949 -6.15296 0.00000
				CHANNELS 3 Zrotation Yrotation Xrotation
				JOINT LeftAnkle
				{
					OFFSET 2.68396 -7.37412 0.00000
					CHANNELS 3 Zrotation Yrotation Xrotation
					JOINT LeftToe
					{
						OFFSET 0.20538 -0.56428 2.52710
						CHANNELS 3 Zrotation Yrotation Xrotation
						End Site
						{
							OFFSET 0.00000 -0.00000 1.29919
						}
					}
				}
			}
		}
	}
	JOINT RHipJoint
	{
		OFFSET 0 0 0
		CHANNELS 3 Zrotation Yrotation Xrotation
		JOINT RightHip
		{
			OFFSET -1.45689 -1.71333 0.88991
			CHANNELS 3 Zrotation Yrotation Xrotation
			JOINT RightKnee
			{
				OFFSET -2.36700 -6.50329 0.00000
				CHANNELS 3 Zrotation Yrotation Xrotation
				JOINT RightAnkle
				{
					OFFSET -2.69814 -7.41308 0.00000
					CHANNELS 3 Zrotation Yrotation Xrotation
					JOINT RightToe
					{
						OFFSET -0.18734 -0.51471 2.37479
						CHANNELS 3 Zrotation Yrotation Xrotation
						End Site
						{
							OFFSET -0.00000 -0.00000 1.22113
						}
					}
				}
			}
		}
	}
	JOINT lowerback
	{
		OFFSET 0 0 0
		CHANNELS 3 Zrotation Yrotation Xrotation
		JOINT Chest
		{
			OFFSET 0.04294 2.14638 -0.31163
			CHANNELS 3 Zrotation Yrotation Xrotation
			JOINT Chest2
			{
				OFFSET -0.00400 2.17216 0.01486
				CHANNELS 3 Zrotation Yrotation Xrotation
				JOINT lowerneck
				{
					OFFSET 0 0 0
					CHANNELS 3 Zrotation Yrotation Xrotation
					JOINT Neck
					{
						OFFSET 0.03869 1.76598 0.14916
						CHANNELS 3 Zrotation Yrotation Xrotation
						JOINT Head
						{
							OFFSET -0.00760 1.75513 -0.18948
							CHANNELS 3 Zrotation Yrotation Xrotation
							End Site
							{
								OFFSET -0.00601 1.82444 -0.08310
							}
						}
					}
				}
				JOINT LeftCollar
				{
					OFFSET 0 0 0
					CHANNELS 3 Zrotation Yrotation Xrotation
					JOINT LeftShoulder
					{
						OFFSET 3.73696 0.92058 0.01733
CHANNELS 3 Zrotation Xrotation Yrotation
						JOINT LeftElbow
						{
OFFSET 0 -5.227710 0.000000
CHANNELS 3 Zrotation Xrotation Yrotation
							JOINT LeftWrist
							{
OFFSET 0 -3.452510 0.000000
CHANNELS 3 Zrotation Xrotation Yrotation
								JOINT lhand
								{
									OFFSET 0 0 0
CHANNELS 3 Zrotation Xrotation Yrotation
									JOINT LFingers
									{
OFFSET 0 -0.552120 0.000000
CHANNELS 3 Zrotation Xrotation Yrotation
										End Site
										{
OFFSET 0 -0.445130 0.000000
										}
									}
								}
								JOINT LThumb
								{
OFFSET 0 0.000000 0.000000
CHANNELS 3 Zrotation Xrotation Yrotation
									End Site
									{
OFFSET 0 -0.451930 0.451930
									}
								}
							}
						}
					}
				}
				JOINT RightCollar
				{
					OFFSET 0 0 0
					CHANNELS 3 Zrotation Yrotation Xrotation
					JOINT RightShoulder
					{
						OFFSET -3.63819 0.83094 -0.13694
CHANNELS 3 Zrotation Xrotation Yrotation
						JOINT RightElbow
						{
OFFSET 0 -5.239800 -0.000000
CHANNELS 3 Zrotation Xrotation Yrotation
							JOINT RightWrist
							{
OFFSET 0 -3.480420 -0.000000
CHANNELS 3 Zrotation Xrotation Yrotation
								JOINT rhand
								{
									OFFSET 0 0 0
CHANNELS 3 Zrotation Xrotation Yrotation
									JOINT RFingers
									{
OFFSET 0 -0.618710 0.000000
CHANNELS 3 Zrotation Xrotation Yrotation
										End Site
										{
OFFSET 0 -0.498820 0.000000
										}
									}
								}
								JOINT RThumb
								{
OFFSET 0 0.000000 0.000000
CHANNELS 3 Zrotation Xrotation Yrotation
									End Site
									{
OFFSET 0 -0.506440 0.506440
									}
								}
							}
						}
					}
				}
			}
		}
	}
}
MOTION
Frames: 9
Frame Time: 0.008333333333333333
46.777900 16.657500 -4.446100 -83.476900 88.876700 -48.427400 0.000000 0.000000 0.000000 -16.917300 -8.422500 -45.981500 0.688400 5.304400 14.778900 0.024300 0.706900 -3.293800 0.212300 -2.966700 -8.186000 0.000000 0.000000 0.000000 6.506300 23.356200 -53.510700 -3.334400 -11.217600 33.017300 -0.247900 -10.210500 -17.951900 -0.286000 -3.439400 9.504700 0.855600 -1.203200 22.498600 0.587700 -0.940200 5.688500 0.386400 -0.307600 -6.326400 1.917200 -0.111700 4.615000 1.423400 0.957000 -23.486900 0.031000 0.422600 -8.003100 -0.000000 0.000000 0.000000 6.033000 -4.727200 -37.804900 23.462300 -34.590500 7.399100 20.827900 -21.656300 -8.590300 0.000000 0.000000 0.000000 -7.125000 0.000000 0.000000 -5.262400 39.109500 -0.766200 -0.000000 0.000000 0.000000 -4.349400 -8.615300 37.602300 -23.972600 -35.135300 -7.690800 -21.238300 -4.570600 6.693800 0.000000 0.000000 0.000000 7.125000 0.000000 -0.000000 4.690400 37.120400 0.911800
46.763652 16.654003 -4.451683 -85.743625 88.849547 -50.362526 0.000000 0.000000 0.000000 -16.738745 -8.671902 -46.449577 0.702856 5.358736 14.934629 0.023403 0.800564 -3.304171 0.207927 -2.935595 -8.099542 0.000000 0.000000 0.000000 6.271986 23.489024 -53.978148 -3.341869 -11.228854 33.055744 -0.234641 -10.377675 -17.984895 -0.273697 -3.365082 9.296950 0.996624 -1.215144 22.192800 0.583284 -0.938645 5.622235 0.297335 -0.312358 -6.243404 1.785090 -0.091579 4.494762 1.537634 0.985847 -23.355013 0.089475 0.438627 -7.937720 0.000000 0.000000 0.000000 6.050651 -4.830628 -37.563772 23.503214 -34.634500 7.422294 20.917267 -21.219590 -8.583023 0.000000 0.000000 0.000000 -7.125000 0.000000 0.000000 -5.184580 39.108697 -0.754949 0.000000 0.000000 0.000000 -4.343373 -8.532126 37.639717 -24.082650 -35.251531 -7.754198 -21.290649 -4.653611 6.708771 0.000000 0.000000 0.000000 7.125000 0.000000 0.000000 4.647714 37.139652 0.901239
46.747606 16.646343 -4.455971 -84.939414 88.881911 -49.222564 0.000000 0.000000 0.000000 -16.597306 -8.982208 -46.907302 0.716811 5.410567 15.083344 0.021312 1.008885 -3.327703 0.208709 -2.941565 -8.116084 0.000000 0.000000 0.000000 6.023275 23.514359 -54.504370 -3.353228 -11.246090 33.114327 -0.223477 -10.436942 -17.918570 -0.266247 -3.319390 9.169211 1.029713 -1.204016 21.940312 0.569155 -0.929921 5.565790 0.258203 -0.311884 -6.175154 1.864477 -0.110903 4.579038 1.460188 0.959195 -23.475003 0.051985 0.425788 -7.992838 0.000000 0.000000 0.000000 6.060037 -4.925087 -37.332429 23.634607 -34.775451 7.497149 20.997188 -20.731304 -8.515007 0.000000 0.000000 0.000000 -7.125000 0.000000 0.000000 -5.106854 39.042475 -0.751860 0.000000 0.000000 0.000000 -4.342587 -8.479455 37.617448 -24.203545 -35.378708 -7.824063 -21.245303 -4.717915 6.747076 0.000000 0.000000 0.000000 7.125000 0.000000 0.000000 4.690084 37.177569 0.905212
46.731660 16.639570 -4.459764 -85.198490 88.892708 -49.130798 0.000000 0.000000 0.000000 -16.438531 -9.263771 -47.408841 0.733528 5.471871 15.259397 0.019716 1.171971 -3.358577 0.207114 -2.929906 -8.083598 0.000000 0.000000 0.000000 5.791614 23.553162 -55.053161 -3.367858 -11.267986 33.189073 -0.211726 -10.514297 -17.866297 -0.258978 -3.274189 9.043164 1.082939 -1.198462 21.687780 0.563456 -0.923478 5.510555 0.217229 -0.312600 -6.105423 1.872242 -0.105160 4.614707 1.430286 0.967906 -23.563058 0.039518 0.432626 -8.028713 0.000000 0.000000 0.000000 6.077278 -5.009177 -37.116247 23.775236 -34.925737 7.577463 21.090246 -20.363405 -8.468971 0.000000 0.000000 0.000000 -7.125000 0.000000 0.000000 -5.020882 39.000727 -0.744282 0.000000 0.000000 0.000000 -4.342324 -8.437201 37.612610 -24.308584 -35.488836 -7.885011 -21.255738 -4.776177 6.752980 0.000000 0.000000 0.000000 7.125000 0.000000 0.000000 4.681834 37.184568 0.902730
46.715038 16.631818 -4.463349 -86.646981 88.900194 -50.146094 0.000000 0.000000 0.000000 -16.262241 -9.560670 -48.029927 0.753320 5.543390 15.465196 0.018321 1.303476 -3.380393 0.206008 -2.922459 -8.062963 0.000000 0.000000 0.000000 5.560916 23.552164 -55.725402 -3.386128 -11.295291 33.282403 -0.198195 -10.579851 -17.777778 -0.250023 -3.217385 8.884490 1.166613 -1.196371 21.360341 0.556315 -0.918487 5.440214 0.156914 -0.315215 -6.013290 1.861019 -0.094602 4.631018 1.419184 0.984037 -23.629177 0.036075 0.443290 -8.053890 0.000000 0.000000 0.000000 6.118638 -5.082444 -36.961032 23.918109 -35.077494 7.659416 21.178982 -20.207997 -8.406211 0.000000 0.000000 0.000000 -7.125000 0.000000 0.000000 -4.936688 38.940689 -0.739040 0.000000 0.000000 0.000000 -4.329432 -8.392241 37.591839 -24.400001 -35.584447 -7.938103 -21.274721 -4.817325 6.752939 0.000000 0.000000 0.000000 7.125000 0.000000 0.000000 4.665844 37.185628 0.899537
46.694267 16.620017 -4.467723 -90.956545 88.929502 -53.797629 0.000000 0.000000 0.000000 -16.049479 -9.958218 -48.945289 0.777376 5.629301 15.712576 0.016530 1.393945 -3.350378 0.205990 -2.922413 -8.062856 0.000000 0.000000 0.000000 5.236483 23.493839 -56.729150 -3.414276 -11.337222 33.425832 -0.182664 -10.640222 -17.657297 -0.238987 -3.146112 8.685776 1.304632 -1.210389 20.799554 0.545884 -0.934339 5.319557 0.065179 -0.330879 -5.854608 1.868993 -0.093317 4.610978 1.409643 0.986863 -23.652247 0.031267 0.445760 -8.058004 0.000000 0.000000 0.000000 6.187758 -5.155368 -36.869462 24.044280 -35.211063 7.732135 21.256245 -20.287076 -8.321795 0.000000 0.000000 0.000000 -7.125000 0.000000 0.000000 -4.859742 38.856589 -0.737533 0.000000 0.000000 0.000000 -4.304357 -8.338858 37.560308 -24.477961 -35.665708 -7.983579 -21.293813 -4.845169 6.775866 0.000000 0.000000 0.000000 7.125000 0.000000 0.000000 4.652080 37.211316 0.893910
46.669901 16.604721 -4.472600 -97.678677 88.979094 -59.702729 0.000000 0.000000 0.000000 -15.826987 -10.421844 -50.070370 0.803867 5.722041 15.980135 0.014540 1.440603 -3.268511 0.206392 -2.925236 -8.070620 0.000000 0.000000 0.000000 4.816951 23.401683 -57.969938 -3.451519 -11.392346 33.614741 -0.166717 -10.703270 -17.535424 -0.228016 -3.073354 8.483147 1.468507 -1.232075 20.090044 0.534532 -0.963583 5.153870 -0.040629 -0.355095 -5.665758 1.866324 -0.099340 4.597824 1.408712 0.979604 -23.672699 0.031820 0.443372 -8.062504 0.000000 0.000000 0.000000 6.266153 -5.223930 -36.831269 24.144965 -35.317169 7.790142 21.336869 -20.499680 -8.244523 0.000000 0.000000 0.000000 -7.125000 0.000000 0.000000 -4.781151 38.780286 -0.734496 0.000000 0.000000 0.000000 -4.279261 -8.269282 37.515238 -24.536230 -35.726190 -8.017575 -21.319943 -4.861064 6.814159 0.000000 0.000000 0.000000 7.125000 0.000000 0.000000 4.633985 37.253770 0.885580
46.645461 16.588965 -4.477097 -104.575835 89.037670 -65.792780 0.000000 0.000000 0.000000 -15.637323 -10.862501 -51.175958 0.827962 5.805354 16.220852 0.012742 1.461235 -3.167721 0.206986 -2.929402 -8.082229 0.000000 0.000000 0.000000 4.365125 23.315917 -59.196921 -3.490493 -11.449672 33.811738 -0.151065 -10.778363 -17.430047 -0.217929 -3.005075 8.292885 1.598695 -1.245099 19.417045 0.522780 -0.988909 4.978404 -0.128265 -0.376847 -5.503701 1.842964 -0.111831 4.589765 1.416808 0.961552 -23.684366 0.039880 0.436515 -8.065030 0.000000 0.000000 0.000000 6.336901 -5.278664 -36.833370 24.208833 -35.384368 7.827166 21.400788 -20.718157 -8.161496 0.000000 0.000000 0.000000 -7.125000 0.000000 0.000000 -4.716249 38.696424 -0.734191 0.000000 0.000000 0.000000 -4.263157 -8.185189 37.468236 -24.571841 -35.763213 -8.038317 -21.336843 -4.866590 6.845925 0.000000 0.000000 0.000000 7.125000 0.000000 0.000000 4.623054 37.288764 0.879503
46.624056 16.574969 -4.481093 -110.973669 89.091779 -71.491847 0.000000 0.000000 0.000000 -15.496994 -11.228427 -52.126191 0.847130 5.870497 16.409074 0.011237 1.460787 -3.068215 0.207284 -2.931677 -8.088647 0.000000 0.000000 0.000000 3.950893 23.242269 -60.254617 -3.524735 -11.499634 33.984041 -0.137937 -10.848053 -17.349421 -0.211150 -2.958331 8.162669 1.694757 -1.246163 18.873837 0.512735 -1.000390 4.819388 -0.196626 -0.390442 -5.389681 1.827960 -0.126683 4.619898 1.403757 0.937494 -23.713899 0.039939 0.427367 -8.080412 0.000000 0.000000 0.000000 6.401212 -5.312499 -36.891475 24.234751 -35.411530 7.842144 21.413983 -20.837660 -8.095744 0.000000 0.000000 0.000000 -7.125000 0.000000 0.000000 -4.697136 38.627272 -0.739197 0.000000 0.000000 0.000000 -4.262798 -8.099722 37.427474 -24.573498 -35.764903 -8.039318 -21.321878 -4.878390 6.843947 0.000000 0.000000 0.000000 7.125000 0.000000 0.000000 4.635560 37.285711 0.882250
